<svg width="235" height="60" viewBox="0 0 235 60" fill="none" xmlns="http://www.w3.org/2000/svg">
<path d="M32.1778 45.562C32.9752 45.654 33.7112 45.8073 34.3858 46.022C35.0912 46.206 35.7352 46.4207 36.3178 46.666L36.0878 48H23.4838L23.7138 46.666C24.4192 46.3593 25.0938 46.1293 25.7378 45.976C26.4125 45.8227 27.0872 45.6847 27.7618 45.562L33.5118 18.284C32.8372 18.1613 32.2085 18.008 31.6258 17.824C31.0432 17.6093 30.4912 17.3793 29.9698 17.134L30.2918 15.8H34.4318C35.6585 15.8 36.9925 15.7387 38.4338 15.616C39.9058 15.4933 41.3012 15.432 42.6198 15.432C44.0918 15.432 45.4412 15.5853 46.6678 15.892C47.9252 16.168 48.9832 16.628 49.8418 17.272C50.7312 17.8853 51.4212 18.6673 51.9118 19.618C52.4025 20.538 52.6478 21.642 52.6478 22.93C52.6478 24.7393 52.3105 26.4107 51.6358 27.944C50.9918 29.4773 50.0412 30.8113 48.7838 31.946C47.5572 33.0807 46.0698 33.97 44.3218 34.614C42.5738 35.258 40.6265 35.58 38.4798 35.58C38.3265 35.58 38.0658 35.58 37.6978 35.58C37.3605 35.58 36.9772 35.58 36.5478 35.58C36.1492 35.5493 35.7352 35.5187 35.3058 35.488C34.9072 35.4573 34.5698 35.4267 34.2938 35.396L32.1778 45.562ZM41.4238 17.824C40.6878 17.824 40.0285 17.8547 39.4458 17.916C38.8938 17.9467 38.4032 17.9927 37.9738 18.054L34.8458 32.958C34.9992 32.9887 35.2138 33.0193 35.4898 33.05C35.7965 33.0807 36.1032 33.1113 36.4098 33.142C36.7472 33.142 37.0538 33.1573 37.3298 33.188C37.6365 33.188 37.8818 33.188 38.0658 33.188C41.2552 33.188 43.6625 32.2833 45.2878 30.474C46.9132 28.634 47.7258 26.1347 47.7258 22.976C47.7258 22.2093 47.6338 21.5193 47.4498 20.906C47.2965 20.262 46.9745 19.71 46.4838 19.25C46.0238 18.79 45.3798 18.4373 44.5518 18.192C43.7545 17.9467 42.7118 17.824 41.4238 17.824ZM65.387 27.806C64.5896 28.1127 63.685 28.8947 62.673 30.152C61.6916 31.3787 60.8176 33.05 60.051 35.166L57.291 48H53.335L57.613 27.668L54.807 27.254V26.104C55.8496 25.6133 56.9383 25.2453 58.073 25C59.2076 24.724 60.235 24.54 61.155 24.448L62.075 25L60.787 31.118H60.971C61.8603 29.094 62.949 27.484 64.237 26.288C65.525 25.0613 66.905 24.448 68.377 24.448C68.7756 24.448 69.1743 24.494 69.573 24.586C69.9716 24.6473 70.355 24.7853 70.723 25C70.723 25.276 70.677 25.644 70.585 26.104C70.493 26.5333 70.355 26.978 70.171 27.438C70.0176 27.898 69.8336 28.3427 69.619 28.772C69.435 29.1707 69.2356 29.4773 69.021 29.692L65.387 27.806ZM70.9422 39.444C70.9422 37.8187 71.1875 36.132 71.6782 34.384C72.1995 32.6053 72.9815 30.98 74.0242 29.508C75.0669 28.036 76.3702 26.8247 77.9342 25.874C79.4982 24.9233 81.3229 24.448 83.4082 24.448C85.8002 24.448 87.5942 25.184 88.7902 26.656C90.0169 28.128 90.6302 30.3053 90.6302 33.188C90.6302 35.212 90.3389 37.1593 89.7562 39.03C89.1735 40.87 88.3609 42.4953 87.3182 43.906C86.2755 45.3167 85.0182 46.4513 83.5462 47.31C82.0742 48.138 80.4489 48.552 78.6702 48.552C76.3089 48.552 74.4229 47.8007 73.0122 46.298C71.6322 44.7647 70.9422 42.48 70.9422 39.444ZM82.4882 26.426C80.9855 26.4567 79.7589 26.9473 78.8082 27.898C77.8575 28.8487 77.1062 30.0293 76.5542 31.44C76.0022 32.8507 75.6189 34.3687 75.4042 35.994C75.1895 37.6193 75.0822 39.1067 75.0822 40.456C75.0822 42.2653 75.4809 43.7373 76.2782 44.872C77.0755 46.0067 78.1489 46.574 79.4982 46.574C80.5715 46.574 81.5222 46.1753 82.3502 45.378C83.2089 44.55 83.9295 43.4767 84.5122 42.158C85.1255 40.8087 85.5855 39.2907 85.8922 37.604C86.2295 35.9173 86.3982 34.2153 86.3982 32.498C86.3982 30.6887 86.0762 29.232 85.4322 28.128C84.8189 27.024 83.8375 26.4567 82.4882 26.426ZM98.3945 27.3H95.0365V26.104C95.6498 25.7667 96.2938 25.4753 96.9685 25.23C97.6738 24.954 98.3332 24.7393 98.9465 24.586L99.2685 22.976C99.6672 21.0747 100.204 19.5107 100.878 18.284C101.584 17.0267 102.396 16.0453 103.316 15.34C104.236 14.604 105.248 14.098 106.352 13.822C107.456 13.546 108.637 13.408 109.894 13.408C110.416 13.408 111.029 13.4693 111.734 13.592C112.47 13.7147 113.084 13.8987 113.574 14.144C113.513 14.8187 113.344 15.524 113.068 16.26C112.823 16.9653 112.394 17.5787 111.78 18.1L108.284 15.248C107.732 15.4013 107.226 15.57 106.766 15.754C106.306 15.938 105.862 16.2907 105.432 16.812C105.034 17.3027 104.65 18.008 104.282 18.928C103.914 19.848 103.562 21.1053 103.224 22.7L102.764 25H107.87C108.024 25.7667 107.87 26.5333 107.41 27.3H102.304L99.3605 46.022C99.0232 48.1993 98.4558 50.0087 97.6585 51.45C96.8612 52.8913 96.0025 54.0567 95.0825 54.946C94.1932 55.8353 93.3192 56.4947 92.4605 56.924C91.6018 57.3533 90.9425 57.6293 90.4825 57.752L90.0685 56.74C90.4365 56.556 90.8812 56.2187 91.4025 55.728C91.9238 55.268 92.4298 54.6393 92.9205 53.842C93.4418 53.0447 93.9172 52.0633 94.3465 50.898C94.8065 49.7633 95.1592 48.4293 95.4045 46.896L98.3945 27.3ZM111.683 44.826C112.02 45.102 112.587 45.4087 113.385 45.746C114.182 46.0527 115.025 46.1907 115.915 46.16C116.927 46.1907 117.908 46.114 118.859 45.93C119.809 45.746 120.668 45.424 121.435 44.964C122.201 44.504 122.815 43.906 123.275 43.17C123.735 42.4033 123.965 41.4527 123.965 40.318C123.965 39.0607 123.658 38.0027 123.045 37.144C122.462 36.2853 121.726 35.534 120.837 34.89C119.947 34.2153 118.981 33.5867 117.939 33.004C116.927 32.3907 115.976 31.716 115.087 30.98C114.197 30.244 113.446 29.3853 112.833 28.404C112.25 27.392 111.959 26.15 111.959 24.678C111.959 23.2673 112.204 21.9947 112.695 20.86C113.216 19.6947 113.967 18.698 114.949 17.87C115.961 17.042 117.187 16.398 118.629 15.938C120.07 15.478 121.711 15.248 123.551 15.248C125.421 15.248 127.093 15.4013 128.565 15.708C130.037 15.984 131.187 16.3367 132.015 16.766C131.892 17.2873 131.708 17.9007 131.463 18.606C131.248 19.2807 131.018 19.986 130.773 20.722C130.527 21.458 130.267 22.1787 129.991 22.884C129.715 23.5587 129.469 24.1567 129.255 24.678H128.059L127.507 18.376C126.985 18.1307 126.311 17.9467 125.483 17.824C124.685 17.7013 123.811 17.64 122.861 17.64C121.941 17.64 121.067 17.7473 120.239 17.962C119.441 18.1767 118.736 18.514 118.123 18.974C117.54 19.4033 117.08 19.9553 116.743 20.63C116.405 21.3047 116.237 22.102 116.237 23.022C116.237 24.2487 116.528 25.276 117.111 26.104C117.724 26.9013 118.475 27.622 119.365 28.266C120.254 28.91 121.205 29.5387 122.217 30.152C123.259 30.7347 124.225 31.4093 125.115 32.176C126.004 32.9427 126.74 33.878 127.323 34.982C127.936 36.0553 128.243 37.3893 128.243 38.984C128.243 40.4253 127.951 41.7287 127.369 42.894C126.817 44.0593 126.004 45.0713 124.931 45.93C123.888 46.758 122.585 47.402 121.021 47.862C119.487 48.322 117.739 48.552 115.777 48.552C114.795 48.552 113.845 48.4907 112.925 48.368C112.035 48.2453 111.207 48.0767 110.441 47.862C109.705 47.6473 109.045 47.4173 108.463 47.172C107.88 46.896 107.435 46.6353 107.129 46.39C107.251 45.838 107.42 45.194 107.635 44.458C107.88 43.6913 108.141 42.9247 108.417 42.158C108.693 41.3913 108.969 40.6553 109.245 39.95C109.521 39.214 109.781 38.5853 110.027 38.064H111.223L111.683 44.826ZM132.859 26.104C133.472 25.7667 134.116 25.46 134.791 25.184C135.496 24.908 136.186 24.6933 136.861 24.54L137.597 21.044C138.026 20.7067 138.517 20.4153 139.069 20.17C139.651 19.894 140.249 19.6333 140.863 19.388L141.829 19.94L140.725 25H146.429C146.49 25.368 146.49 25.7513 146.429 26.15C146.367 26.5487 146.214 26.932 145.969 27.3H140.265L137.367 40.64C137.244 41.2227 137.152 41.744 137.091 42.204C137.029 42.6333 136.999 43.032 136.999 43.4C136.999 44.1973 137.229 44.78 137.689 45.148C138.149 45.516 138.655 45.7 139.207 45.7C139.973 45.7 140.786 45.562 141.645 45.286C142.534 44.9793 143.347 44.642 144.083 44.274L144.589 45.102C144.313 45.5007 143.899 45.8993 143.347 46.298C142.795 46.6967 142.166 47.0647 141.461 47.402C140.786 47.7393 140.065 48.0153 139.299 48.23C138.563 48.4447 137.857 48.552 137.183 48.552C135.833 48.552 134.775 48.2453 134.009 47.632C133.242 47.0187 132.859 46.068 132.859 44.78C132.859 44.3507 132.889 43.8753 132.951 43.354C133.043 42.8327 133.15 42.296 133.273 41.744L136.309 27.3H132.813L132.859 26.104ZM154.567 45.7C155.395 45.7 156.223 45.3167 157.051 44.55C157.879 43.7527 158.661 42.802 159.397 41.698C160.133 40.594 160.792 39.444 161.375 38.248C161.957 37.052 162.417 36.0553 162.755 35.258L164.227 27.392C163.797 27.0853 163.383 26.8707 162.985 26.748C162.586 26.6253 162.034 26.564 161.329 26.564C159.918 26.564 158.63 27.0087 157.465 27.898C156.33 28.7567 155.349 29.876 154.521 31.256C153.723 32.636 153.095 34.1693 152.635 35.856C152.205 37.5427 151.991 39.1987 151.991 40.824C151.991 42.388 152.175 43.5993 152.543 44.458C152.941 45.286 153.616 45.7 154.567 45.7ZM161.835 38.984C161.436 40.088 160.93 41.2073 160.317 42.342C159.734 43.4767 159.044 44.504 158.247 45.424C157.48 46.344 156.621 47.0953 155.671 47.678C154.72 48.2607 153.708 48.552 152.635 48.552C149.445 48.552 147.851 46.2367 147.851 41.606C147.851 39.4593 148.157 37.374 148.771 35.35C149.384 33.2953 150.273 31.4707 151.439 29.876C152.604 28.2813 154.015 27.0087 155.671 26.058C157.357 25.0767 159.259 24.586 161.375 24.586C162.141 24.586 162.755 24.6627 163.215 24.816C163.675 24.9387 164.227 25.138 164.871 25.414C166.097 24.77 167.385 24.448 168.735 24.448L164.595 45.47H167.953V46.62C167.339 47.1107 166.603 47.5093 165.745 47.816C164.886 48.1227 164.043 48.276 163.215 48.276C162.325 48.276 161.681 48.092 161.283 47.724C160.915 47.3253 160.731 46.9113 160.731 46.482C160.731 45.93 160.838 45.0253 161.053 43.768C161.267 42.5107 161.589 40.916 162.019 38.984H161.835ZM172.974 26.104C173.587 25.7667 174.231 25.46 174.906 25.184C175.611 24.908 176.301 24.6933 176.976 24.54L177.712 21.044C178.141 20.7067 178.632 20.4153 179.184 20.17C179.766 19.894 180.364 19.6333 180.978 19.388L181.944 19.94L180.84 25H186.544C186.605 25.368 186.605 25.7513 186.544 26.15C186.482 26.5487 186.329 26.932 186.084 27.3H180.38L177.482 40.64C177.359 41.2227 177.267 41.744 177.206 42.204C177.144 42.6333 177.114 43.032 177.114 43.4C177.114 44.1973 177.344 44.78 177.804 45.148C178.264 45.516 178.77 45.7 179.322 45.7C180.088 45.7 180.901 45.562 181.76 45.286C182.649 44.9793 183.462 44.642 184.198 44.274L184.704 45.102C184.428 45.5007 184.014 45.8993 183.462 46.298C182.91 46.6967 182.281 47.0647 181.576 47.402C180.901 47.7393 180.18 48.0153 179.414 48.23C178.678 48.4447 177.972 48.552 177.298 48.552C175.948 48.552 174.89 48.2453 174.124 47.632C173.357 47.0187 172.974 46.068 172.974 44.78C172.974 44.3507 173.004 43.8753 173.066 43.354C173.158 42.8327 173.265 42.296 173.388 41.744L176.424 27.3H172.928L172.974 26.104ZM197.718 42.572C197.687 41.836 197.472 41.2073 197.074 40.686C196.706 40.134 196.215 39.6127 195.602 39.122C195.019 38.6313 194.39 38.1407 193.716 37.65C193.041 37.1593 192.397 36.6227 191.784 36.04C191.201 35.4267 190.71 34.7367 190.312 33.97C189.944 33.1727 189.76 32.222 189.76 31.118C189.76 30.014 189.974 29.048 190.404 28.22C190.833 27.392 191.416 26.702 192.152 26.15C192.918 25.598 193.823 25.184 194.866 24.908C195.939 24.6013 197.104 24.448 198.362 24.448C199.159 24.448 200.048 24.5247 201.03 24.678C202.042 24.8007 202.992 25.1227 203.882 25.644C203.882 25.9813 203.82 26.38 203.698 26.84C203.575 27.2693 203.406 27.6987 203.192 28.128C203.008 28.5267 202.793 28.91 202.548 29.278C202.302 29.6153 202.042 29.8453 201.766 29.968L198.362 26.426C197.718 26.4567 197.12 26.5333 196.568 26.656C196.016 26.7787 195.525 26.978 195.096 27.254C194.697 27.53 194.375 27.898 194.13 28.358C193.915 28.7873 193.808 29.3393 193.808 30.014C193.808 30.8113 194.007 31.5013 194.406 32.084C194.804 32.636 195.295 33.1727 195.878 33.694C196.491 34.1847 197.135 34.6753 197.81 35.166C198.515 35.626 199.159 36.1627 199.742 36.776C200.355 37.3587 200.861 38.0487 201.26 38.846C201.658 39.6127 201.858 40.5327 201.858 41.606C201.858 42.71 201.597 43.6913 201.076 44.55C200.585 45.4087 199.895 46.1447 199.006 46.758C198.147 47.3407 197.135 47.7853 195.97 48.092C194.835 48.3987 193.624 48.552 192.336 48.552C191.048 48.552 189.867 48.414 188.794 48.138C187.751 47.8927 186.923 47.5707 186.31 47.172C186.463 46.3747 186.647 45.608 186.862 44.872C187.076 44.1053 187.521 43.4 188.196 42.756L192.336 46.574C192.98 46.574 193.608 46.4973 194.222 46.344C194.866 46.1907 195.433 45.9453 195.924 45.608C196.445 45.2707 196.859 44.8567 197.166 44.366C197.503 43.8753 197.687 43.2773 197.718 42.572Z" fill="white"/>
<path d="M29.375 5.65217L29.7465 4.45866L28.6457 4.11599L28.2153 5.18558L29.375 5.65217ZM59.2019 16.087L58.7517 17.253L59.1266 17.3978L59.5157 17.2969L59.2019 16.087ZM71.4038 12.9231L71.8969 11.7744L71.504 11.6058L71.0901 11.7131L71.4038 12.9231ZM85.8654 19.1304L85.3723 20.2791L86.1287 20.6038L86.7258 20.0372L85.8654 19.1304ZM102.135 3.69231L102.376 2.46579L101.742 2.34126L101.274 2.78557L102.135 3.69231ZM121.5 7.5L121.952 6.33439L121.849 6.29469L121.741 6.27348L121.5 7.5ZM135.5 12.9231L135.048 14.0887L135.443 14.2416L135.85 14.1231L135.5 12.9231ZM145 10.1538L145.662 9.09363L145.187 8.79717L144.65 8.95379L145 10.1538ZM154.5 16.087L153.838 17.1472L154.399 17.4974L155.004 17.2309L154.5 16.087ZM174 7.5L174.769 6.51467L174.18 6.05485L173.496 6.35601L174 7.5ZM231.837 3.23077L217.458 4.49759L225.745 16.3159L231.837 3.23077ZM185 16.087L184.231 17.0723L184.433 17.2301L184.681 17.2955L185 16.087ZM23.9519 19.1304L25.0978 19.6299L25.1049 19.6136L25.1116 19.597L23.9519 19.1304ZM213.5 16.087L214.201 17.1222L214.209 17.1164L214.218 17.1105L213.5 16.087ZM18.0769 32.6087L18.9565 33.4968L19.127 33.3281L19.2228 33.1082L18.0769 32.6087ZM43.8365 10.1538L44.2868 8.98776L44.2479 8.97273L44.2081 8.96033L43.8365 10.1538ZM205.5 21.5L205.181 22.7086L205.73 22.8536L206.201 22.5353L205.5 21.5ZM3.59113 48.7142L5.51181 46.8121L3.75262 45.0358L1.83194 46.9379L3.59113 48.7142ZM6.79226 45.5439L10.6336 41.7396L8.87441 39.9633L5.03306 43.7676L6.79226 45.5439ZM11.9141 40.4715L15.7554 36.6671L13.9962 34.8908L10.1549 38.6952L11.9141 40.4715ZM17.0358 35.399L18.9565 33.4968L17.1973 31.7205L15.2767 33.6227L17.0358 35.399ZM19.2228 33.1082L20.3244 30.581L18.0326 29.582L16.931 32.1092L19.2228 33.1082ZM21.0587 28.8962L23.2619 23.8419L20.9701 22.8429L18.767 27.8973L21.0587 28.8962ZM23.9962 22.1571L25.0978 19.6299L22.806 18.631L21.7045 21.1581L23.9962 22.1571ZM25.1116 19.597L26.1284 17.0699L23.8091 16.1367L22.7923 18.6638L25.1116 19.597ZM26.8063 15.3851L28.8399 10.3307L26.5206 9.39754L24.487 14.4519L26.8063 15.3851ZM29.5178 8.64594L30.5347 6.11877L28.2153 5.18558L27.1985 7.71275L29.5178 8.64594ZM29.0035 6.84569L31.715 7.68975L32.4581 5.30273L29.7465 4.45866L29.0035 6.84569ZM33.5227 8.25246L38.9458 9.94058L39.6888 7.55356L34.2658 5.86543L33.5227 8.25246ZM40.7535 10.5033L43.465 11.3474L44.2081 8.96033L41.4965 8.11627L40.7535 10.5033ZM43.3863 11.3199L46.2673 12.4324L47.1678 10.1002L44.2868 8.98776L43.3863 11.3199ZM48.188 13.174L53.95 15.3989L54.8505 13.0668L49.0885 10.8419L48.188 13.174ZM55.8706 16.1406L58.7517 17.253L59.6522 14.9209L56.7712 13.8084L55.8706 16.1406ZM59.5157 17.2969L61.8035 16.7037L61.176 14.2837L58.8882 14.877L59.5157 17.2969ZM63.3288 16.3082L67.9045 15.1218L67.277 12.7018L62.7013 13.8883L63.3288 16.3082ZM69.4297 14.7263L71.7176 14.1331L71.0901 11.7131L68.8022 12.3063L69.4297 14.7263ZM70.9108 14.0717L73.6223 15.2356L74.6084 12.9383L71.8969 11.7744L70.9108 14.0717ZM75.43 16.0115L80.8531 18.3393L81.8392 16.042L76.4161 13.7142L75.43 16.0115ZM82.6608 19.1152L85.3723 20.2791L86.3584 17.9818L83.6469 16.8179L82.6608 19.1152ZM86.7258 20.0372L88.7595 18.1074L87.0386 16.2939L85.005 18.2237L86.7258 20.0372ZM90.1152 16.8209L94.1825 12.9614L92.4617 11.1479L88.3944 15.0074L90.1152 16.8209ZM95.5383 11.6749L99.6056 7.81532L97.8848 6.00184L93.8175 9.86138L95.5383 11.6749ZM100.961 6.52881L102.995 4.59905L101.274 2.78557L99.2405 4.71533L100.961 6.52881ZM101.893 4.91882L105.524 5.63277L106.007 3.17973L102.376 2.46579L101.893 4.91882ZM107.945 6.10873L115.207 7.53661L115.689 5.08358L108.427 3.6557L107.945 6.10873ZM117.628 8.01257L121.259 8.72652L121.741 6.27348L118.11 5.55954L117.628 8.01257ZM121.048 8.66561L123.673 9.68243L124.577 7.35122L121.952 6.33439L121.048 8.66561ZM125.423 10.3603L130.673 12.394L131.577 10.0628L126.327 8.02911L125.423 10.3603ZM132.423 13.0719L135.048 14.0887L135.952 11.7575L133.327 10.7406L132.423 13.0719ZM135.85 14.1231L139.412 13.0847L138.713 10.6846L135.15 11.723L135.85 14.1231ZM141.787 12.3924L145.35 11.3539L144.65 8.95379L141.088 9.99225L141.787 12.3924ZM144.338 11.2141L147.9 13.439L149.225 11.3185L145.662 9.09363L144.338 11.2141ZM150.275 14.9223L153.838 17.1472L155.162 15.0267L151.6 12.8018L150.275 14.9223ZM155.004 17.2309L157.441 16.1576L156.434 13.8696L153.996 14.943L155.004 17.2309ZM159.066 15.442L163.941 13.2953L162.934 11.0073L158.059 13.154L159.066 15.442ZM165.566 12.5797L170.441 10.4329L169.434 8.14496L164.559 10.2917L165.566 12.5797ZM172.066 9.71736L174.504 8.64399L173.496 6.35601L171.059 7.42938L172.066 9.71736ZM173.231 8.48533L175.293 10.0954L176.832 8.12473L174.769 6.51467L173.231 8.48533ZM176.668 11.1687L180.793 14.3889L182.332 12.4182L178.207 9.1981L176.668 11.1687ZM182.168 15.4622L184.231 17.0723L185.769 15.1016L183.707 13.4916L182.168 15.4622ZM184.681 17.2955L187.243 17.9722L187.882 15.555L185.319 14.8784L184.681 17.2955ZM188.952 18.4232L194.077 19.7765L194.715 17.3594L189.59 16.0061L188.952 18.4232ZM195.785 20.2276L200.91 21.5809L201.548 19.1637L196.423 17.8104L195.785 20.2276ZM202.618 22.0319L205.181 22.7086L205.819 20.2914L203.257 19.6148L202.618 22.0319ZM206.201 22.5353L209.201 20.5054L207.8 18.4348L204.8 20.4647L206.201 22.5353ZM211.201 19.1521L214.201 17.1222L212.8 15.0517L209.8 17.0816L211.201 19.1521ZM214.218 17.1105L216.51 15.5034L215.074 13.4564L212.782 15.0635L214.218 17.1105ZM218.038 14.4321L222.622 11.218L221.187 9.17104L216.603 12.3851L218.038 14.4321ZM224.15 10.1467L228.734 6.93264L227.299 4.88564L222.715 8.09969L224.15 10.1467Z" fill="#FFA500"/>
</svg>
